TITLE ""
FILE "2Q_t_0518-0534.mp3" MP3
  TRACK 01 AUDIO
    TITLE "2Q_t_0518-0534_01"
    INDEX 01 00:00:00
  TRACK 02 AUDIO
    TITLE "2Q_t_0518-0534_02"
    INDEX 01 00:01:08
  TRACK 03 AUDIO
    TITLE "2Q_t_0518-0534_03"
    INDEX 01 00:01:53
  TRACK 04 AUDIO
    TITLE "2Q_t_0518-0534_04"
    INDEX 01 00:03:30
  TRACK 05 AUDIO
    TITLE "2Q_t_0518-0534_05"
    INDEX 01 00:04:00
  TRACK 06 AUDIO
    TITLE "2Q_t_0518-0534_06"
    INDEX 01 00:05:04
  TRACK 07 AUDIO
    TITLE "2Q_t_0518-0534_07"
    INDEX 01 00:05:51
  TRACK 08 AUDIO
    TITLE "2Q_t_0518-0534_08"
    INDEX 01 00:07:61
  TRACK 09 AUDIO
    TITLE "2Q_t_0518-0534_09"
    INDEX 01 00:08:29
  TRACK 10 AUDIO
    TITLE "2Q_t_0518-0534_10"
    INDEX 01 00:09:52
  TRACK 11 AUDIO
    TITLE "2Q_t_0518-0534_11"
    INDEX 01 00:10:22
  TRACK 12 AUDIO
    TITLE "2Q_t_0518-0534_12"
    INDEX 01 00:13:70
  TRACK 13 AUDIO
    TITLE "2Q_t_0518-0534_13"
    INDEX 01 00:14:40
  TRACK 14 AUDIO
    TITLE "2Q_t_0518-0534_14"
    INDEX 01 00:15:27
  TRACK 15 AUDIO
    TITLE "2Q_t_0518-0534_15"
    INDEX 01 00:16:09
  TRACK 16 AUDIO
    TITLE "2Q_t_0518-0534_16"
    INDEX 01 00:19:15
  TRACK 17 AUDIO
    TITLE "2Q_t_0518-0534_17"
    INDEX 01 00:19:61
  TRACK 18 AUDIO
    TITLE "2Q_t_0518-0534_18"
    INDEX 01 00:20:66
  TRACK 19 AUDIO
    TITLE "2Q_t_0518-0534_19"
    INDEX 01 00:21:36
  TRACK 20 AUDIO
    TITLE "2Q_t_0518-0534_20"
    INDEX 01 00:22:59
  TRACK 21 AUDIO
    TITLE "2Q_t_0518-0534_21"
    INDEX 01 00:23:27
  TRACK 22 AUDIO
    TITLE "2Q_t_0518-0534_22"
    INDEX 01 00:24:58
  TRACK 23 AUDIO
    TITLE "2Q_t_0518-0534_23"
    INDEX 01 00:25:28
  TRACK 24 AUDIO
    TITLE "2Q_t_0518-0534_24"
    INDEX 01 00:26:68
  TRACK 25 AUDIO
    TITLE "2Q_t_0518-0534_25"
    INDEX 01 00:27:37
  TRACK 26 AUDIO
    TITLE "2Q_t_0518-0534_26"
    INDEX 01 00:28:42
  TRACK 27 AUDIO
    TITLE "2Q_t_0518-0534_27"
    INDEX 01 00:29:14
  TRACK 28 AUDIO
    TITLE "2Q_t_0518-0534_28"
    INDEX 01 00:30:19
  TRACK 29 AUDIO
    TITLE "2Q_t_0518-0534_29"
    INDEX 01 00:30:66
  TRACK 30 AUDIO
    TITLE "2Q_t_0518-0534_30"
    INDEX 01 00:32:06
  TRACK 31 AUDIO
    TITLE "2Q_t_0518-0534_31"
    INDEX 01 00:32:51
  TRACK 32 AUDIO
    TITLE "2Q_t_0518-0534_32"
    INDEX 01 00:33:51
  TRACK 33 AUDIO
    TITLE "2Q_t_0518-0534_33"
    INDEX 01 00:34:33
  TRACK 34 AUDIO
    TITLE "2Q_t_0518-0534_34"
    INDEX 01 00:35:36
  TRACK 35 AUDIO
    TITLE "2Q_t_0518-0534_35"
    INDEX 01 00:36:04
  TRACK 36 AUDIO
    TITLE "2Q_t_0518-0534_36"
    INDEX 01 00:37:35
  TRACK 37 AUDIO
    TITLE "2Q_t_0518-0534_37"
    INDEX 01 00:38:07
  TRACK 38 AUDIO
    TITLE "2Q_t_0518-0534_38"
    INDEX 01 00:39:22
  TRACK 39 AUDIO
    TITLE "2Q_t_0518-0534_39"
    INDEX 01 00:39:67
  TRACK 40 AUDIO
    TITLE "2Q_t_0518-0534_40"
    INDEX 01 00:41:07
  TRACK 41 AUDIO
    TITLE "2Q_t_0518-0534_41"
    INDEX 01 00:41:58
  TRACK 42 AUDIO
    TITLE "2Q_t_0518-0534_42"
    INDEX 01 00:44:06
  TRACK 43 AUDIO
    TITLE "2Q_t_0518-0534_43"
    INDEX 01 00:44:51
  TRACK 44 AUDIO
    TITLE "2Q_t_0518-0534_44"
    INDEX 01 00:45:62
  TRACK 45 AUDIO
    TITLE "2Q_t_0518-0534_45"
    INDEX 01 00:46:32
  TRACK 46 AUDIO
    TITLE "2Q_t_0518-0534_46"
    INDEX 01 00:48:41
  TRACK 47 AUDIO
    TITLE "2Q_t_0518-0534_47"
    INDEX 01 00:49:09
  TRACK 48 AUDIO
    TITLE "2Q_t_0518-0534_48"
    INDEX 01 00:50:30
  TRACK 49 AUDIO
    TITLE "2Q_t_0518-0534_49"
    INDEX 01 00:51:06
  TRACK 50 AUDIO
    TITLE "2Q_t_0518-0534_50"
    INDEX 01 00:52:19
  TRACK 51 AUDIO
    TITLE "2Q_t_0518-0534_51"
    INDEX 01 00:52:64
  TRACK 52 AUDIO
    TITLE "2Q_t_0518-0534_52"
    INDEX 01 00:54:04
  TRACK 53 AUDIO
    TITLE "2Q_t_0518-0534_53"
    INDEX 01 00:54:59
  TRACK 54 AUDIO
    TITLE "2Q_t_0518-0534_54"
    INDEX 01 00:58:23
  TRACK 55 AUDIO
    TITLE "2Q_t_0518-0534_55"
    INDEX 01 00:58:67
  TRACK 56 AUDIO
    TITLE "2Q_t_0518-0534_56"
    INDEX 01 01:00:12
  TRACK 57 AUDIO
    TITLE "2Q_t_0518-0534_57"
    INDEX 01 01:00:60
  TRACK 58 AUDIO
    TITLE "2Q_t_0518-0534_58"
    INDEX 01 01:03:07
  TRACK 59 AUDIO
    TITLE "2Q_t_0518-0534_59"
    INDEX 01 01:03:50
  TRACK 60 AUDIO
    TITLE "2Q_t_0518-0534_60"
    INDEX 01 01:04:59
  TRACK 61 AUDIO
    TITLE "2Q_t_0518-0534_61"
    INDEX 01 01:05:29
  TRACK 62 AUDIO
    TITLE "2Q_t_0518-0534_62"
    INDEX 01 01:06:46
  TRACK 63 AUDIO
    TITLE "2Q_t_0518-0534_63"
    INDEX 01 01:07:15
  TRACK 64 AUDIO
    TITLE "2Q_t_0518-0534_64"
    INDEX 01 01:08:32
  TRACK 65 AUDIO
    TITLE "2Q_t_0518-0534_65"
    INDEX 01 01:09:04
  TRACK 66 AUDIO
    TITLE "2Q_t_0518-0534_66"
    INDEX 01 01:10:21
  TRACK 67 AUDIO
    TITLE "2Q_t_0518-0534_67"
    INDEX 01 01:10:66
  TRACK 68 AUDIO
    TITLE "2Q_t_0518-0534_68"
    INDEX 01 01:12:06
  TRACK 69 AUDIO
    TITLE "2Q_t_0518-0534_69"
    INDEX 01 01:12:53
  TRACK 70 AUDIO
    TITLE "2Q_t_0518-0534_70"
    INDEX 01 01:15:63
